<svg width="21" height="20" viewBox="0 0 21 20" fill="none" xmlns="http://www.w3.org/2000/svg">
<rect x="1.3335" y="0.5" width="19" height="19" rx="9.5" stroke="white"/>
<path d="M10.9964 14.12C10.4231 14.12 9.90978 13.98 9.45645 13.7C9.00311 13.4133 8.64645 13 8.38645 12.46C8.12645 11.92 7.99645 11.2667 7.99645 10.5C7.99645 9.73333 8.12645 9.08 8.38645 8.54C8.64645 8 9.00311 7.59 9.45645 7.31C9.90978 7.02333 10.4231 6.88 10.9964 6.88C11.5764 6.88 12.0898 7.02333 12.5364 7.31C12.9898 7.59 13.3464 8 13.6064 8.54C13.8664 9.08 13.9964 9.73333 13.9964 10.5C13.9964 11.2667 13.8664 11.92 13.6064 12.46C13.3464 13 12.9898 13.4133 12.5364 13.7C12.0898 13.98 11.5764 14.12 10.9964 14.12ZM10.9964 12.75C11.2698 12.75 11.5064 12.6733 11.7064 12.52C11.9131 12.3667 12.0731 12.1233 12.1864 11.79C12.3064 11.4567 12.3664 11.0267 12.3664 10.5C12.3664 9.97333 12.3064 9.54333 12.1864 9.21C12.0731 8.87667 11.9131 8.63333 11.7064 8.48C11.5064 8.32667 11.2698 8.25 10.9964 8.25C10.7298 8.25 10.4931 8.32667 10.2864 8.48C10.0864 8.63333 9.92645 8.87667 9.80645 9.21C9.69311 9.54333 9.63645 9.97333 9.63645 10.5C9.63645 11.0267 9.69311 11.4567 9.80645 11.79C9.92645 12.1233 10.0864 12.3667 10.2864 12.52C10.4931 12.6733 10.7298 12.75 10.9964 12.75Z" fill="white"/>
</svg>
