<svg width="16" height="16" viewBox="0 0 16 16" fill="none" xmlns="http://www.w3.org/2000/svg">
<rect width="16" height="16" rx="8" fill="#9747FF"/>
<path d="M4.99869 12.5V11.684L8.41869 8.384C8.72269 8.096 8.94669 7.844 9.09069 7.628C9.24269 7.404 9.34269 7.2 9.39069 7.016C9.44669 6.824 9.47469 6.64 9.47469 6.464C9.47469 6.032 9.32269 5.692 9.01869 5.444C8.71469 5.196 8.27069 5.072 7.68669 5.072C7.23869 5.072 6.83469 5.148 6.47469 5.3C6.11469 5.444 5.80269 5.672 5.53869 5.984L4.72269 5.276C5.04269 4.868 5.47069 4.556 6.00669 4.34C6.55069 4.116 7.14669 4.004 7.79469 4.004C8.37869 4.004 8.88669 4.1 9.31869 4.292C9.75069 4.476 10.0827 4.744 10.3147 5.096C10.5547 5.448 10.6747 5.864 10.6747 6.344C10.6747 6.616 10.6387 6.884 10.5667 7.148C10.4947 7.412 10.3587 7.692 10.1587 7.988C9.95869 8.284 9.67069 8.616 9.29469 8.984L6.24669 11.924L5.95869 11.456H11.0347V12.5H4.99869Z" fill="white"/>
</svg>
