<svg width="21" height="20" viewBox="0 0 21 20" fill="none" xmlns="http://www.w3.org/2000/svg">
<rect x="0.833496" width="20" height="20" rx="10" fill="#9747FF"/>
<path d="M10.701 14.12C10.2143 14.12 9.73102 14.0567 9.25102 13.93C8.77102 13.7967 8.36435 13.61 8.03102 13.37L8.66102 12.13C8.92768 12.3233 9.23768 12.4767 9.59102 12.59C9.94435 12.7033 10.301 12.76 10.661 12.76C11.0677 12.76 11.3877 12.68 11.621 12.52C11.8543 12.36 11.971 12.14 11.971 11.86C11.971 11.5933 11.8677 11.3833 11.661 11.23C11.4543 11.0767 11.121 11 10.661 11H9.92102V9.93L11.871 7.72L12.051 8.3H8.38102V7H13.281V8.05L11.341 10.26L10.521 9.79H10.991C11.851 9.79 12.501 9.98333 12.941 10.37C13.381 10.7567 13.601 11.2533 13.601 11.86C13.601 12.2533 13.4977 12.6233 13.291 12.97C13.0843 13.31 12.7677 13.5867 12.341 13.8C11.9143 14.0133 11.3677 14.12 10.701 14.12Z" fill="white"/>
</svg>
