<svg width="88" height="22" viewBox="0 0 88 22" fill="none" xmlns="http://www.w3.org/2000/svg">
<path d="M4.76 18.32H15.608V22H0.632V0.207998H15.608V3.888H4.76V9.264H15.608V12.912H4.76V18.32ZM22.21 18.32H34.018V22H18.37V0.207998H22.21V18.32ZM45.0823 0.207998C45.9356 0.207998 46.7463 0.378665 47.5143 0.719999C48.2823 1.04 48.9543 1.488 49.5303 2.064C50.1063 2.64 50.5543 3.32267 50.8743 4.112C51.2156 4.88 51.3863 5.70133 51.3863 6.576V15.664C51.3863 16.5387 51.2156 17.36 50.8743 18.128C50.5543 18.896 50.1063 19.568 49.5303 20.144C48.9543 20.72 48.2823 21.1787 47.5143 21.52C46.7463 21.84 45.9356 22 45.0823 22H42.5863C41.7116 22 40.8903 21.84 40.1223 21.52C39.3543 21.1787 38.6823 20.72 38.1063 20.144C37.5516 19.568 37.1036 18.896 36.7623 18.128C36.4209 17.36 36.2503 16.5387 36.2503 15.664V6.576C36.2503 5.70133 36.4209 4.88 36.7623 4.112C37.1036 3.32267 37.5516 2.64 38.1063 2.064C38.6823 1.488 39.3543 1.04 40.1223 0.719999C40.8903 0.378665 41.7116 0.207998 42.5863 0.207998H45.0823ZM47.4823 6.768C47.4823 6 47.2583 5.34933 46.8103 4.816C46.3836 4.28267 45.7969 4.016 45.0503 4.016H42.6183C41.8716 4.016 41.2743 4.28267 40.8263 4.816C40.3996 5.34933 40.1863 6 40.1863 6.768V15.44C40.1863 16.208 40.3996 16.8693 40.8263 17.424C41.2743 17.9573 41.8716 18.224 42.6183 18.224H45.0503C45.7969 18.224 46.3836 17.9573 46.8103 17.424C47.2583 16.8693 47.4823 16.208 47.4823 15.44V6.768ZM63.4045 18.224C64.0232 18.224 64.5245 18.0427 64.9085 17.68C65.2925 17.296 65.5485 16.8373 65.6765 16.304V12.688H62.0605V9.264H69.3565V22H65.6765V21.296C65.2498 21.5307 64.7805 21.712 64.2685 21.84C63.7778 21.9467 63.2765 22 62.7645 22H60.5565C59.7032 22 58.8925 21.84 58.1245 21.52C57.3565 21.1787 56.6845 20.72 56.1085 20.144C55.5325 19.568 55.0738 18.896 54.7325 18.128C54.4125 17.36 54.2525 16.5387 54.2525 15.664V6.576C54.2525 5.70133 54.4125 4.88 54.7325 4.112C55.0738 3.32267 55.5325 2.64 56.1085 2.064C56.6845 1.488 57.3565 1.04 58.1245 0.719999C58.8925 0.378665 59.7032 0.207998 60.5565 0.207998H63.3085C64.1405 0.207998 64.9085 0.357332 65.6125 0.655998C66.3165 0.954665 66.9245 1.37067 67.4365 1.904C67.9698 2.416 68.3965 3.024 68.7165 3.728C69.0365 4.432 69.2392 5.18933 69.3245 6H65.3885C65.2392 5.44533 65.0045 4.976 64.6845 4.592C64.3858 4.208 63.9165 4.016 63.2765 4.016H60.5885C60.2258 4.016 59.8845 4.09067 59.5645 4.24C59.2658 4.368 59.0098 4.56 58.7965 4.816C58.5832 5.072 58.4125 5.37067 58.2845 5.712C58.1778 6.032 58.1245 6.384 58.1245 6.768V15.44C58.1245 15.824 58.1778 16.1867 58.2845 16.528C58.4125 16.848 58.5832 17.136 58.7965 17.392C59.0098 17.648 59.2658 17.8507 59.5645 18C59.8845 18.1493 60.2258 18.224 60.5885 18.224H63.4045ZM80.8948 0.207998C81.7481 0.207998 82.5588 0.378665 83.3268 0.719999C84.0948 1.04 84.7668 1.488 85.3428 2.064C85.9188 2.64 86.3668 3.32267 86.6868 4.112C87.0281 4.88 87.1988 5.70133 87.1988 6.576V15.664C87.1988 16.5387 87.0281 17.36 86.6868 18.128C86.3668 18.896 85.9188 19.568 85.3428 20.144C84.7668 20.72 84.0948 21.1787 83.3268 21.52C82.5588 21.84 81.7481 22 80.8948 22H78.3988C77.5241 22 76.7028 21.84 75.9348 21.52C75.1668 21.1787 74.4948 20.72 73.9188 20.144C73.3641 19.568 72.9161 18.896 72.5748 18.128C72.2334 17.36 72.0628 16.5387 72.0628 15.664V6.576C72.0628 5.70133 72.2334 4.88 72.5748 4.112C72.9161 3.32267 73.3641 2.64 73.9188 2.064C74.4948 1.488 75.1668 1.04 75.9348 0.719999C76.7028 0.378665 77.5241 0.207998 78.3988 0.207998H80.8948ZM83.2948 6.768C83.2948 6 83.0708 5.34933 82.6228 4.816C82.1961 4.28267 81.6094 4.016 80.8628 4.016H78.4308C77.6841 4.016 77.0868 4.28267 76.6388 4.816C76.2121 5.34933 75.9988 6 75.9988 6.768V15.44C75.9988 16.208 76.2121 16.8693 76.6388 17.424C77.0868 17.9573 77.6841 18.224 78.4308 18.224H80.8628C81.6094 18.224 82.1961 17.9573 82.6228 17.424C83.0708 16.8693 83.2948 16.208 83.2948 15.44V6.768Z" fill="white"/>
</svg>
