<svg width="20" height="20" viewBox="0 0 20 20" fill="none" xmlns="http://www.w3.org/2000/svg">
<path d="M4.51833 10L2.26201 12.2557L0 10L2.25632 7.74432L4.51833 10ZM10.0028 4.51705L13.8733 8.38636L16.1296 6.13068L10.0028 0L3.87042 6.13068L6.12674 8.38636L10.0028 4.51705ZM17.7437 7.74432L15.4874 10L17.7437 12.2557L20 10L17.7437 7.74432ZM10.0028 15.483L6.13242 11.6136L3.8761 13.8693L10.0028 20L16.1296 13.8693L13.8733 11.6136L10.0028 15.483ZM10.0028 12.2557L12.2592 10L10.0028 7.74432L7.74084 10L10.0028 12.2557Z" fill="#F0B90B"/>
</svg>
